<?xml version="1.0" encoding="UTF-8"?>
<svg id="Capa_1" data-name="Capa 1" xmlns="http://www.w3.org/2000/svg" viewBox="0 0 1000 1000">
  <defs>
    <style>
      .cls-1 {
        fill: #101214;
      }

      .cls-1, .cls-2, .cls-3 {
        stroke-width: 0px;
      }

      .cls-2 {
        fill: #21252b;
      }

      .cls-3 {
        fill: #ff3b58;
      }
    </style>
  </defs>
  <rect class="cls-1" width="1000" height="1000"/>
  <g>
    <path class="cls-3" d="m548.45,485.83c-7.43,2.25-10.5-.81-13.39-6.25-20.59-38.73-41.57-77.25-62.23-115.93-2.12-3.97-4.57-5.22-8.95-5.21-37.92.17-75.84.09-113.76.11-2.05,0-4.1.24-6.24.37v282.02h107.33v-126.65c6.61-1.98,10.42-.47,13.77,5.62,21.34,38.81,43.2,77.32,64.69,116.05,2.25,4.05,4.67,5.62,9.38,5.59,36.85-.21,73.71-.11,110.57-.13,0-1.99,6.27.13,6.27.13v-282.49c-35.91,0-71.34,0-107.42,0v126.76Zm-113.1,135.63h-71.69v-71.16h26v45.16h45.69v26Zm129.54-244.58h71.69v71.16h-26v-45.16h-45.69v-26Z"/>
    <path class="cls-2" d="m834.11,460.13v79.74c-43.86,0-79.75,35.89-79.75,79.75v39.87c0,43.86-35.88,79.75-79.74,79.75h-263.75v-79.75h60v-90.49l49.8,90.49h153.95v-79.74c0-43.86,35.88-79.75,79.74-79.75-43.86,0-79.74-35.89-79.74-79.75v-79.74h-64.75v-79.75h64.75c43.86,0,79.74,35.89,79.74,79.75v39.87c0,43.86,35.89,79.75,79.75,79.75Z"/>
    <path class="cls-2" d="m590.87,260.76v79.75h-61.37v88.49l-47.28-88.49h-156.84v79.74c0,43.86-35.88,79.75-79.74,79.75,43.86,0,79.74,35.89,79.74,79.75v79.74h65.49v79.75h-65.49c-43.86,0-79.74-35.89-79.74-79.75v-39.87c0-43.86-35.89-79.75-79.75-79.75v-79.74c43.86,0,79.75-35.89,79.75-79.75v-39.87c0-43.86,35.88-79.75,79.74-79.75h265.49Z"/>
  </g>
</svg>